<?xml version="1.0" standalone="no"?><!DOCTYPE svg PUBLIC "-//W3C//DTD SVG 1.1//EN" "http://www.w3.org/Graphics/SVG/1.1/DTD/svg11.dtd"><svg t="1784186902319" class="icon" viewBox="0 0 1024 1024" version="1.1" xmlns="http://www.w3.org/2000/svg" p-id="51575" xmlns:xlink="http://www.w3.org/1999/xlink" width="200" height="200"><path d="M0 0h1024v1024H0V0z" fill="#202425" opacity=".01" p-id="51576"></path><path d="M341.333333 68.266667a68.266667 68.266667 0 0 0-68.266666 68.266666v204.8a68.266667 68.266667 0 0 0 68.266666 68.266667h341.333334a68.266667 68.266667 0 0 0 68.266666-68.266667V136.533333a68.266667 68.266667 0 0 0-68.266666-68.266666H341.333333z m0 68.266666h341.333334v204.8H341.333333V136.533333zM102.4 580.266667a34.133333 34.133333 0 0 0-34.133333 34.133333v307.2a34.133333 34.133333 0 0 0 34.133333 34.133333h819.2a34.133333 34.133333 0 0 0 34.133333-34.133333v-307.2a34.133333 34.133333 0 0 0-34.133333-34.133333H102.4z" fill="#11AA66" p-id="51577"></path><path d="M68.266667 273.066667a34.133333 34.133333 0 0 1 34.133333-34.133334h819.2a34.133333 34.133333 0 0 1 34.133333 34.133334v238.933333a34.133333 34.133333 0 0 1-34.133333 34.133333H102.4a34.133333 34.133333 0 0 1-34.133333-34.133333V273.066667z" fill="#FFAA44" p-id="51578"></path><path d="M375.466667 512a34.133333 34.133333 0 0 1 34.133333-34.133333h204.8a34.133333 34.133333 0 0 1 34.133333 34.133333v102.4a34.133333 34.133333 0 0 1-34.133333 34.133333h-204.8a34.133333 34.133333 0 0 1-34.133333-34.133333v-102.4z" fill="#FFFFFF" p-id="51579"></path></svg>