<?xml version="1.0" standalone="no"?><!DOCTYPE svg PUBLIC "-//W3C//DTD SVG 1.1//EN" "http://www.w3.org/Graphics/SVG/1.1/DTD/svg11.dtd"><svg t="1781162518376" class="icon" viewBox="0 0 1024 1024" version="1.1" xmlns="http://www.w3.org/2000/svg" p-id="62016" xmlns:xlink="http://www.w3.org/1999/xlink" width="200" height="200"><path d="M0 0m125.754386 0l772.491228 0q125.754386 0 125.754386 125.754386l0 772.491228q0 125.754386-125.754386 125.754386l-772.491228 0q-125.754386 0-125.754386-125.754386l0-772.491228q0-125.754386 125.754386-125.754386Z" fill="#FC366E" p-id="62017"></path><path d="M921.150877 174.547088a417.091368 417.091368 0 0 0-409.168842 274.198456 417.235088 417.235088 0 0 0-409.150877-274.198456 417.360842 417.360842 0 0 0 181.625263 361.992982 223.914667 223.914667 0 0 1 97.010526 185.038597v128.143719h261.084071v-128.07186a223.914667 223.914667 0 0 1 97.010526-185.038596 417.181193 417.181193 0 0 0 181.553403-361.921123z" fill="#FFFFFF" p-id="62018"></path></svg>